<svg width="20" height="20" viewBox="0 0 20 20" fill="none" xmlns="http://www.w3.org/2000/svg">
<mask id="mask0_9848_8330" style="mask-type:alpha" maskUnits="userSpaceOnUse" x="2" y="5" width="16" height="10">
<path fill-rule="evenodd" clip-rule="evenodd" d="M2.5 5.83333C2.5 6.29167 2.875 6.66667 3.33333 6.66667H16.6667C17.125 6.66667 17.5 6.29167 17.5 5.83333C17.5 5.375 17.125 5 16.6667 5H3.33333C2.875 5 2.5 5.375 2.5 5.83333ZM3.33333 15H6.66667C7.125 15 7.5 14.625 7.5 14.1667C7.5 13.7083 7.125 13.3333 6.66667 13.3333H3.33333C2.875 13.3333 2.5 13.7083 2.5 14.1667C2.5 14.625 2.875 15 3.33333 15ZM11.6667 10.8333H3.33333C2.875 10.8333 2.5 10.4583 2.5 10C2.5 9.54167 2.875 9.16667 3.33333 9.16667H11.6667C12.125 9.16667 12.5 9.54167 12.5 10C12.5 10.4583 12.125 10.8333 11.6667 10.8333Z" fill="#0F172A"/>
</mask>
<g mask="url(#mask0_9848_8330)">
<rect width="20" height="20" fill="#94A3B8"/>
</g>
</svg>
