<svg width="24" height="24" viewBox="0 0 24 24" fill="none" xmlns="http://www.w3.org/2000/svg">
<mask id="mask0_9848_8313" style="mask-type:alpha" maskUnits="userSpaceOnUse" x="3" y="3" width="18" height="18">
<path fill-rule="evenodd" clip-rule="evenodd" d="M15.1867 14.4718H15.9767L20.2167 18.7318C20.6267 19.1418 20.6267 19.8118 20.2167 20.2218C19.8067 20.6318 19.1367 20.6318 18.7267 20.2218L14.4767 15.9718V15.1818L14.2067 14.9018C12.8067 16.1018 10.8967 16.7218 8.8667 16.3818C6.0867 15.9118 3.8667 13.5918 3.5267 10.7918C3.0067 6.56182 6.5667 3.00182 10.7967 3.52182C13.5967 3.86182 15.9167 6.08182 16.3867 8.86182C16.7267 10.8918 16.1067 12.8018 14.9067 14.2018L15.1867 14.4718ZM5.47668 9.97217C5.47668 12.4622 7.48668 14.4722 9.97668 14.4722C12.4667 14.4722 14.4767 12.4622 14.4767 9.97217C14.4767 7.48217 12.4667 5.47217 9.97668 5.47217C7.48668 5.47217 5.47668 7.48217 5.47668 9.97217Z" fill="#0F172A"/>
</mask>
<g mask="url(#mask0_9848_8313)">
<rect width="24" height="24" fill="#94A3B8"/>
</g>
</svg>
